<?xml version="1.0" standalone="no"?>
<!DOCTYPE svg PUBLIC "-//W3C//DTD SVG 20010904//EN"
 "http://www.w3.org/TR/2001/REC-SVG-20010904/DTD/svg10.dtd">
<svg version="1.0" xmlns="http://www.w3.org/2000/svg"
 width="830.000000pt" height="1280.000000pt" viewBox="0 0 830.000000 1280.000000"
 preserveAspectRatio="xMidYMid meet">
<g transform="translate(0.000000,1280.000000) scale(0.100000,-0.100000)"
fill="#000000" stroke="none">
<path d="M4640 12771 c-72 -36 -4504 -2595 -4551 -2628 -21 -13 -48 -46 -63
-75 l-26 -50 0 -3941 0 -3942 26 -55 c71 -154 267 -404 488 -625 279 -279 586
-516 951 -737 645 -390 1262 -620 1860 -694 220 -27 251 -28 301 -9 42 16
4505 2587 4585 2642 21 13 48 46 63 75 l26 50 0 3941 0 3942 -24 50 c-13 28
-32 58 -42 67 -25 22 -3420 1982 -3469 2002 -50 21 -61 20 -125 -13z m1538
-1202 c1792 -1035 1662 -959 1662 -969 0 -5 -62 -44 -137 -88 -76 -44 -545
-315 -1043 -602 -498 -287 -1121 -647 -1385 -800 -1774 -1025 -1713 -990
-1754 -990 -67 0 -239 20 -356 41 -975 178 -2189 903 -2745 1640 -59 79 -61
83 -43 99 10 10 733 431 1608 935 875 505 1833 1058 2130 1230 502 290 596
344 603 345 1 0 658 -379 1460 -841z m1760 -4896 c2 -3571 1 -3761 -15 -3775
-10 -9 -675 -395 -1478 -858 -803 -464 -1751 -1011 -2108 -1217 -356 -206
-652 -371 -657 -368 -7 4 -10 1305 -10 3770 l0 3763 278 160 c152 88 493 285
757 437 264 153 831 480 1260 728 429 248 1043 603 1365 789 322 185 590 336
595 334 7 -2 11 -1267 13 -3763z m-7088 2446 c343 -283 663 -491 1075 -699
127 -64 295 -142 375 -174 395 -160 797 -265 1080 -283 52 -3 101 -10 108 -16
18 -14 18 -7560 -1 -7575 -14 -12 -196 6 -337 33 -359 69 -773 220 -1170 426
-682 356 -1245 818 -1569 1288 l-51 75 0 3038 c0 1671 4 3038 8 3038 5 0 100
-91 213 -203 273 -272 474 -438 758 -625 286 -188 667 -386 971 -505 329 -129
792 -261 846 -241 39 13 68 56 60 88 -12 48 -38 61 -193 100 -931 229 -1816
741 -2432 1405 l-104 113 -41 -5 c-23 -2 -51 -8 -63 -12 l-23 -7 0 594 c0 327
3 597 6 601 3 3 88 -77 187 -177 100 -100 234 -225 297 -277z"/>
<path d="M452 7454 c-35 -24 -44 -59 -28 -99 20 -46 349 -375 506 -505 474
-393 969 -677 1570 -902 214 -79 609 -188 685 -188 47 0 75 29 75 78 0 25 -7
45 -19 56 -10 9 -104 39 -209 66 -779 200 -1484 570 -2072 1086 -58 50 -178
167 -268 258 -173 177 -189 186 -240 150z"/>
<path d="M833 4725 c-238 -74 -364 -372 -268 -632 120 -323 509 -380 694 -102
113 169 112 401 -2 571 -23 34 -64 80 -92 100 -90 69 -230 95 -332 63z m203
-149 c102 -47 167 -161 168 -296 1 -93 -22 -163 -74 -229 -127 -161 -335 -123
-429 79 -22 46 -26 69 -26 145 0 78 4 98 29 152 31 67 94 135 149 158 50 22
125 18 183 -9z"/>
<path d="M818 3497 c-146 -55 -239 -171 -275 -343 -46 -227 80 -464 281 -526
137 -41 271 -4 372 104 90 98 124 188 124 327 0 144 -42 253 -133 344 -69 71
-142 101 -247 104 -53 2 -99 -2 -122 -10z m209 -149 c107 -50 179 -209 154
-341 -37 -200 -198 -306 -349 -231 -61 30 -96 69 -131 144 -21 45 -25 70 -26
140 0 73 4 94 28 145 44 95 101 145 184 164 47 10 86 5 140 -21z"/>
</g>
</svg>
